<?xml version="1.0" encoding="iso-8859-1"?>
<!-- Generator: Adobe Illustrator 18.1.1, SVG Export Plug-In . SVG Version: 6.00 Build 0)  -->
<svg version="1.1" id="Capa_1" xmlns="http://www.w3.org/2000/svg" xmlns:xlink="http://www.w3.org/1999/xlink" x="0px" y="0px"
	 viewBox="0 0 18.588 18.588" style="enable-background:new 0 0 18.588 18.588;" xml:space="preserve">
<g>
	<path style="fill:#030104;" d="M13.849,3.414L12.816,0.2l-1.147,1.021L9.287,0L9.179,1.856L8.163,0.839L5.272,3.414H2.054v2.631
		h1.177l0.912,10.454c0.014,1.154,0.957,2.089,2.115,2.089h6.075c1.159,0,2.104-0.938,2.115-2.097l0.93-10.446h1.157V3.414H13.849z
		 M7.137,9.163l2.19-2.189l2.19,2.189l-2.19,2.19L7.137,9.163z M11.023,13.931l-1.695,1.694l-1.695-1.694l1.695-1.694L11.023,13.931
		z M9.284,6.044h0.087L9.328,6.088L9.284,6.044z M9.77,6.531l0.485-0.486h2.809l0.786,0.786l-1.89,1.89L9.77,6.531z M13.324,3.414
		h-2.587L10.37,3.048l2.204-1.964L13.324,3.414z M9.741,0.794l1.527,0.784l-1.252,1.114L9.652,2.328L9.741,0.794z M8.143,1.527
		l1.887,1.887H6.025L8.143,1.527z M5.591,6.044H8.4L8.886,6.53l-2.19,2.189l-1.891-1.89L5.591,6.044z M4.21,6.044h0.497L4.363,6.388
		L4.227,6.253L4.21,6.044z M4.624,10.792L4.321,7.315l0.043-0.042l1.89,1.89L4.624,10.792z M6.696,9.604l2.19,2.19l-1.694,1.695
		l-2.19-2.191L6.696,9.604z M6.749,13.932l-1.37,1.369l-0.36-3.099L6.749,13.932z M6.258,17.611c-0.628,0-1.139-0.511-1.139-1.139
		l-0.002-0.024l0.198-0.198l1.361,1.361H6.258z M7.257,17.308l-1.5-1.501l1.434-1.434l1.694,1.694l-1.24,1.24L7.257,17.308
		L7.257,17.308z M8.53,17.308l0.798-0.798l0.797,0.798H8.53z M11.01,17.308l-1.24-1.24l1.694-1.694l1.435,1.434l-1.501,1.501
		L11.01,17.308L11.01,17.308z M13.473,16.436l-0.001,0.036c0,0.628-0.511,1.139-1.139,1.139h-0.354l1.36-1.361l0.138,0.137
		L13.473,16.436z M13.276,15.301l-1.37-1.37l1.729-1.729L13.276,15.301z M11.464,13.49l-1.694-1.695l2.19-2.19l1.694,1.694
		L11.464,13.49z M13.981,10.742l-1.578-1.579l1.888-1.889L13.981,10.742z M14.376,6.303l-0.084,0.085l-0.344-0.344h0.451
		L14.376,6.303z"/>
</g>
<g>
</g>
<g>
</g>
<g>
</g>
<g>
</g>
<g>
</g>
<g>
</g>
<g>
</g>
<g>
</g>
<g>
</g>
<g>
</g>
<g>
</g>
<g>
</g>
<g>
</g>
<g>
</g>
<g>
</g>
</svg>
