<?xml version='1.0' encoding='iso-8859-1'?>
<!DOCTYPE svg PUBLIC '-//W3C//DTD SVG 1.1//EN' 'http://www.w3.org/Graphics/SVG/1.1/DTD/svg11.dtd'>
<svg version="1.1" xmlns="http://www.w3.org/2000/svg" viewBox="0 0 297 297" xmlns:xlink="http://www.w3.org/1999/xlink" enable-background="new 0 0 297 297">
  <g>
    <path d="m162.659,85.926l-10.853,5.161c-2.093,0.995-4.52,0.995-6.613,0l-10.853-5.161-1.953,.599c-2.446,0.848-4.084,3.144-4.084,5.738v27.765c6.29,2.356 13.094,3.652 20.196,3.652s13.906-1.296 20.196-3.652v-27.764c0-2.594-1.638-4.891-4.084-5.738l-1.952-.6z"/>
    <path d="m148.5,49.294c4.844,0 8.784-3.94 8.784-8.784s-3.94-8.784-8.784-8.784-8.784,3.94-8.784,8.784 3.94,8.784 8.784,8.784z"/>
    <path d="m57.75,196.863c-4.844,0-8.784,3.94-8.784,8.784 0,4.844 3.94,8.784 8.784,8.784s8.784-3.94 8.784-8.784c0-4.843-3.94-8.784-8.784-8.784z"/>
    <path d="m57.75,173.319c-31.843,0-57.75,25.907-57.75,57.75 0,18.421 8.68,34.842 22.154,45.424v-19.092c0-9.258 5.901-17.444 14.685-20.371 0.058-0.019 5.096-1.566 5.096-1.566 1.841-0.565 3.826-0.421 5.566,0.407l10.25,4.874 10.249-4.874c1.739-0.828 3.725-0.973 5.566-0.407 0,0 5.038,1.547 5.096,1.566 8.784,2.927 14.685,11.114 14.685,20.371v19.092c13.473-10.582 22.154-27.003 22.154-45.424-0.001-31.843-25.908-57.75-57.751-57.75zm0,56.512c-13.335,0-24.184-10.849-24.184-24.184 0-13.335 10.849-24.184 24.184-24.184s24.184,10.849 24.184,24.184c0,13.336-10.849,24.184-24.184,24.184z"/>
    <path d="m73.862,251.663l-1.953-.599-10.853,5.161c-2.093,0.995-4.52,0.995-6.613,0l-10.853-5.161-1.953,.599c-2.446,0.848-4.084,3.144-4.084,5.738v27.765c6.29,2.356 13.094,3.652 20.196,3.652s13.906-1.296 20.196-3.652v-27.765c0.001-2.594-1.637-4.891-4.083-5.738z"/>
    <path d="m112.904,111.355v-19.091c0-9.258 5.901-17.444 14.685-20.371 0.058-0.019 5.096-1.566 5.096-1.566 1.841-0.564 3.825-0.42 5.566,0.406l10.25,4.874 10.25-4.874c1.739-0.826 3.724-0.971 5.566-0.406 0,0 5.038,1.547 5.096,1.566 8.784,2.927 14.685,11.114 14.685,20.371v19.092c13.473-10.582 22.154-27.003 22.154-45.424 0-31.843-25.907-57.75-57.75-57.75s-57.75,25.907-57.75,57.75c-0.002,18.42 8.678,34.842 22.152,45.423zm35.596-95.029c13.335-7.10543e-15 24.184,10.849 24.184,24.184s-10.849,24.184-24.184,24.184-24.184-10.849-24.184-24.184 10.849-24.184 24.184-24.184z"/>
    <path d="m239.25,173.319c-31.843,0-57.75,25.907-57.75,57.75 0,18.421 8.68,34.842 22.154,45.424v-19.092c0-9.258 5.901-17.444 14.685-20.371 0.058-0.019 5.096-1.566 5.096-1.566 1.841-0.565 3.826-0.421 5.566,0.407l10.25,4.874 10.25-4.874c1.74-0.828 3.725-0.973 5.566-0.407 0,0 5.038,1.547 5.096,1.566 8.784,2.927 14.685,11.114 14.685,20.371v19.092c13.472-10.582 22.152-27.003 22.152-45.424 0-31.843-25.907-57.75-57.75-57.75zm0,56.512c-13.335,0-24.184-10.849-24.184-24.184 0-13.335 10.849-24.184 24.184-24.184s24.184,10.849 24.184,24.184c0,13.336-10.849,24.184-24.184,24.184z"/>
    <path d="m255.362,251.663l-1.953-.599-10.853,5.161c-2.093,0.995-4.52,0.995-6.613,0l-10.853-5.161-1.953,.599c-2.446,0.848-4.084,3.144-4.084,5.738v27.765c6.29,2.356 13.094,3.652 20.196,3.652s13.906-1.296 20.196-3.652v-27.765c0.001-2.594-1.637-4.891-4.083-5.738z"/>
    <path d="m239.25,196.863c-4.844,0-8.784,3.94-8.784,8.784 0,4.844 3.94,8.784 8.784,8.784s8.784-3.94 8.784-8.784c0-4.843-3.94-8.784-8.784-8.784z"/>
    <path d="m156.2,162.922v-24.249c-2.531,0.266-5.099,0.408-7.7,0.408s-5.169-0.142-7.7-0.408v24.249l-31.88,15.94c3.763,3.689 7.126,7.781 10.027,12.204l29.553-14.776 29.553,14.776c2.901-4.423 6.264-8.515 10.027-12.204l-31.88-15.94z"/>
  </g>
</svg>
