<svg width="210" height="62" viewBox="0 0 210 62" xmlns="http://www.w3.org/2000/svg"><title>Add to Slack button</title><g fill="none" fill-rule="evenodd"><path d="M9.75.75h190.5a9 9 0 0 1 9 9v42a9 9 0 0 1-9 9H9.75a9 9 0 0 1-9-9v-42a9 9 0 0 1 9-9" fill="#FFF"/><path d="M9.75.75h190.5a9 9 0 0 1 9 9v42a9 9 0 0 1-9 9H9.75a9 9 0 0 1-9-9v-42a9 9 0 0 1 9-9z" stroke="#C7CACD"/><path d="M181.904 21.897v9.753h.536c.225 0 .396-.033.51-.097.117-.066.235-.177.35-.332l2.278-3.393c.14-.195.298-.34.478-.437.18-.097.407-.145.686-.145h3.3l-3.114 4.29a3.835 3.835 0 0 1-1.047.952c.18.132.343.285.49.46.145.173.286.37.418.586l3.395 5.766h-3.255c-.272 0-.504-.045-.698-.133a1.102 1.102 0 0 1-.487-.47l-2.28-4.267c-.108-.194-.22-.32-.338-.378-.117-.06-.29-.09-.522-.09h-.7V39.3h-3.602V21.896h3.604zm-6.055 8.208c-.11.132-.216.236-.315.314-.1.075-.244.114-.43.114a.918.918 0 0 1-.482-.127l-.483-.285a3.691 3.691 0 0 0-.628-.285c-.24-.086-.54-.128-.894-.128-.443 0-.824.08-1.146.244a2.104 2.104 0 0 0-.797.697 3.228 3.228 0 0 0-.465 1.11c-.1.44-.15.933-.15 1.483 0 1.154.222 2.042.668 2.663.445.618 1.06.928 1.842.928.42 0 .75-.052.993-.156.247-.103.453-.22.622-.348.173-.127.33-.246.47-.355a.886.886 0 0 1 .543-.162c.288 0 .504.105.65.313l1.046 1.29a5.78 5.78 0 0 1-1.173 1.043c-.41.264-.83.473-1.26.624-.43.152-.863.255-1.296.314-.435.06-.857.088-1.268.088-.736 0-1.44-.14-2.11-.418a5.157 5.157 0 0 1-1.767-1.217c-.51-.528-.91-1.182-1.21-1.955-.3-.777-.447-1.66-.447-2.652 0-.867.13-1.678.388-2.436a5.576 5.576 0 0 1 1.153-1.963 5.34 5.34 0 0 1 1.884-1.308c.747-.318 1.613-.477 2.597-.477.945 0 1.774.15 2.49.452a6.01 6.01 0 0 1 1.93 1.326l-.955 1.267zm-21.16-1.186a7.348 7.348 0 0 1 2.425-1.437 8.516 8.516 0 0 1 2.855-.47c.727 0 1.384.118 1.968.353a4.26 4.26 0 0 1 1.49.99c.406.422.718.923.937 1.505a5.43 5.43 0 0 1 .324 1.907V39.3h-1.653c-.34 0-.598-.046-.772-.14-.174-.092-.32-.286-.435-.58l-.258-.664c-.302.256-.59.48-.87.673-.28.194-.57.36-.867.494-.3.135-.615.24-.953.303-.336.068-.71.1-1.122.1-.55 0-1.05-.073-1.5-.215a3.132 3.132 0 0 1-1.144-.635 2.797 2.797 0 0 1-.728-1.04c-.17-.415-.255-.893-.255-1.436 0-.433.11-.872.326-1.318.216-.445.59-.852 1.127-1.22.534-.37 1.254-.677 2.16-.925.907-.247 2.052-.388 3.432-.418v-.513c0-.706-.147-1.215-.436-1.528-.293-.315-.705-.472-1.24-.472-.427 0-.775.046-1.046.14a4.55 4.55 0 0 0-.726.313c-.215.116-.422.22-.62.314-.204.093-.444.14-.724.14a1.06 1.06 0 0 1-.63-.185 1.68 1.68 0 0 1-.416-.443l-.652-1.128zm6.49 5.475a12.03 12.03 0 0 0-1.782.185c-.463.093-.832.21-1.104.35-.27.14-.457.296-.562.475-.107.18-.16.372-.16.582 0 .41.115.7.34.865.223.168.553.25.988.25.465 0 .87-.08 1.22-.244.348-.162.702-.426 1.06-.79v-1.673zM148.912 39.3h3.603V21.896h-3.603V39.3zm-3.102-13.497a1.54 1.54 0 0 1-.366.42.832.832 0 0 1-.495.138c-.18 0-.37-.056-.576-.167l-.697-.378a5.752 5.752 0 0 0-.89-.378 3.57 3.57 0 0 0-1.14-.168c-.735 0-1.282.155-1.644.47-.36.314-.54.738-.54 1.272 0 .34.107.624.324.85.216.223.503.418.855.58.353.163.756.312 1.21.448.452.135.916.287 1.39.453.47.167.934.363 1.387.587.454.225.856.51 1.21.86.35.35.636.775.852 1.273.217.5.327 1.102.327 1.807 0 .783-.138 1.517-.408 2.198a5.107 5.107 0 0 1-1.18 1.783c-.515.51-1.15.91-1.907 1.2-.756.29-1.614.436-2.575.436a8.29 8.29 0 0 1-1.61-.163 9.507 9.507 0 0 1-3.027-1.163c-.45-.27-.84-.573-1.176-.906l1.164-1.837c.094-.132.214-.242.367-.332a.966.966 0 0 1 .494-.133c.233 0 .467.073.704.222.236.147.504.31.803.486.297.178.64.343 1.027.49.39.146.846.22 1.373.22.712 0 1.266-.157 1.662-.47.393-.315.59-.812.59-1.494 0-.395-.107-.717-.323-.965a2.542 2.542 0 0 0-.855-.615 8.03 8.03 0 0 0-1.204-.43c-.447-.124-.91-.262-1.382-.413a9.753 9.753 0 0 1-1.383-.558c-.45-.22-.852-.512-1.204-.872s-.64-.81-.855-1.348c-.22-.54-.327-1.203-.327-1.994 0-.636.13-1.255.384-1.86a4.829 4.829 0 0 1 1.128-1.615c.497-.474 1.104-.85 1.824-1.134.722-.283 1.548-.424 2.477-.424.52 0 1.025.04 1.52.123.49.08.957.2 1.398.36.443.158.855.347 1.24.57.383.22.727.47 1.028.748l-.975 1.825zm-23.03 11.463c.993 0 1.725-.334 2.204-1 .477-.668.714-1.643.714-2.93 0-1.285-.237-2.266-.714-2.94-.48-.675-1.21-1.012-2.204-1.012-1.008 0-1.753.34-2.238 1.017-.483.68-.727 1.657-.727 2.936 0 1.278.244 2.253.727 2.925.485.67 1.23 1.006 2.238 1.006zm0-10.08c.885 0 1.688.144 2.412.43a5.253 5.253 0 0 1 1.86 1.222c.515.526.914 1.17 1.193 1.93.277.758.418 1.608.418 2.546 0 .945-.14 1.797-.418 2.557a5.502 5.502 0 0 1-1.193 1.942 5.196 5.196 0 0 1-1.86 1.232c-.724.288-1.527.43-2.412.43-.89 0-1.7-.142-2.428-.43a5.186 5.186 0 0 1-1.866-1.232 5.584 5.584 0 0 1-1.2-1.94c-.28-.76-.422-1.613-.422-2.558 0-.938.14-1.788.423-2.547.284-.76.683-1.403 1.2-1.93a5.233 5.233 0 0 1 1.865-1.22c.727-.287 1.537-.43 2.428-.43zm-9.95 12.3c-1.04 0-1.835-.292-2.39-.88-.554-.584-.83-1.39-.83-2.42v-6.663h-1.22a.56.56 0 0 1-.395-.15c-.11-.102-.165-.253-.165-.454v-1.14l1.918-.315.605-3.255a.654.654 0 0 1 .222-.36.657.657 0 0 1 .418-.127h1.488v3.754h3.187v2.046h-3.186v6.464c0 .372.09.663.274.87.182.21.43.315.75.315.18 0 .327-.02.447-.063s.226-.088.315-.135c.09-.046.17-.09.238-.135a.407.407 0 0 1 .21-.064c.086 0 .155.022.21.064.053.045.11.108.173.194l.86 1.395c-.418.347-.898.61-1.44.788a5.319 5.319 0 0 1-1.687.268zm-12.463-17.46v17.273h-1.755c-.38 0-.62-.174-.72-.523l-.244-1.15a6.004 6.004 0 0 1-1.658 1.334c-.622.345-1.35.514-2.18.514-.65 0-1.247-.136-1.79-.406a4.018 4.018 0 0 1-1.4-1.18c-.39-.517-.693-1.153-.906-1.913-.214-.76-.32-1.628-.32-2.603 0-.885.12-1.705.36-2.466.24-.76.586-1.417 1.034-1.975a4.85 4.85 0 0 1 1.616-1.307c.628-.315 1.333-.47 2.116-.47.666 0 1.236.104 1.71.312.47.21.894.494 1.266.85v-6.29h2.87zm-2.87 8.393c-.326-.397-.682-.676-1.064-.838a3.122 3.122 0 0 0-1.24-.245c-.433 0-.824.08-1.172.245a2.36 2.36 0 0 0-.895.738c-.25.328-.438.747-.57 1.257-.132.507-.198 1.104-.198 1.795 0 .698.057 1.287.17 1.773.112.483.273.878.48 1.185.21.306.466.527.77.663.302.135.638.203 1.01.203.597 0 1.106-.123 1.523-.372.418-.248.814-.602 1.186-1.058V30.42zm-10.324-8.395V39.3h-1.755c-.38 0-.62-.174-.72-.523l-.246-1.15c-.48.55-1.032.995-1.656 1.334-.624.345-1.35.514-2.18.514-.65 0-1.247-.136-1.79-.406a4 4 0 0 1-1.4-1.18c-.39-.517-.694-1.153-.907-1.913-.214-.76-.32-1.628-.32-2.603 0-.885.12-1.705.36-2.466a5.97 5.97 0 0 1 1.034-1.975 4.85 4.85 0 0 1 1.616-1.307c.628-.315 1.333-.47 2.116-.47.666 0 1.236.104 1.71.312.47.21.894.494 1.266.85v-6.29h2.87zm-2.87 8.394c-.326-.397-.68-.676-1.064-.838a3.129 3.129 0 0 0-1.24-.245c-.434 0-.825.08-1.175.245-.348.162-.646.41-.894.738-.246.328-.437.747-.57 1.257-.13.507-.197 1.104-.197 1.795 0 .698.056 1.287.17 1.773.11.483.273.878.48 1.185.21.306.466.527.77.663.3.135.638.203 1.01.203.597 0 1.104-.123 1.523-.372.418-.248.814-.602 1.186-1.058V30.42zm-8.777 8.88h-2.42c-.27 0-.49-.07-.66-.204a1.244 1.244 0 0 1-.385-.507l-1.255-3.428h-6.963l-1.255 3.427c-.062.18-.183.343-.362.49-.177.145-.4.22-.66.22H59.12l6.615-16.81h3.186l6.603 16.81zm-5.523-6.346l-2.046-5.592c-.1-.25-.206-.543-.314-.884-.11-.342-.217-.71-.325-1.105-.1.396-.206.766-.314 1.11-.11.345-.213.645-.315.9l-2.035 5.57h5.348z" fill="#393A3F"/><path d="M37.144 16.292a2.939 2.939 0 0 0-5.589 1.815l7.6 23.38a2.94 2.94 0 0 0 3.575 1.823c1.557-.45 2.508-2.108 2.01-3.64l-7.596-23.378" fill="#E1A749"/><path d="M25.37 20.117a2.94 2.94 0 0 0-5.591 1.817l7.598 23.38a2.94 2.94 0 0 0 3.576 1.82c1.56-.45 2.51-2.105 2.012-3.638l-7.596-23.38" fill="#40AE86"/><path d="M46.708 35.654a2.938 2.938 0 1 0-1.815-5.589l-23.38 7.6a2.936 2.936 0 0 0-1.82 3.575c.447 1.557 2.105 2.508 3.636 2.01l23.378-7.596" fill="#CC245C"/><path d="M26.385 42.258l5.59-1.817c-.496-1.52-1.133-3.482-1.817-5.586L24.57 36.67l1.815 5.588" fill="#452546"/><path d="M38.16 38.432l5.587-1.817-1.815-5.59-5.59 1.818 1.818 5.59" fill="#B7272E"/><path d="M42.883 23.88a2.94 2.94 0 0 0-1.817-5.591l-23.38 7.598a2.94 2.94 0 0 0-1.82 3.576c.45 1.56 2.105 2.51 3.638 2.012l23.38-7.596" fill="#75C3CA"/><path d="M22.56 30.483c1.52-.495 3.482-1.13 5.588-1.815l-1.816-5.59-5.59 1.818 1.817 5.587" fill="#2B8A74"/><path d="M34.333 26.658l5.59-1.817c-.688-2.11-1.325-4.075-1.817-5.587l-5.59 1.816 1.817 5.588" fill="#637F3D"/></g></svg>