<svg width="512" height="127" viewBox="0 0 512 127" xmlns="http://www.w3.org/2000/svg" preserveAspectRatio="xMidYMid"><defs><linearGradient x1="-37.754%" y1="134.908%" x2="130.272%" y2="-27.685%" id="a"><stop stop-color="#00AEFF" offset="0%"/><stop stop-color="#3369E7" offset="100%"/></linearGradient></defs><path d="M16.7 0H110c9.2 0 16.7 7.5 16.7 16.7v93.4c0 9.2-7.5 16.7-16.7 16.7H16.7c-9.2 0-16.7-7.5-16.7-16.7V16.6C0 7.5 7.5 0 16.7 0z" fill="url(#a)"/><path d="M64.8 32C45.1 32 29 48.1 29 67.9c0 19.8 16 35.8 35.8 35.8 19.8 0 35.8-16 35.8-35.8 0-19.8-16-35.9-35.8-35.9zm0 61.1c-13.9 0-25.2-11.3-25.2-25.2 0-13.9 11.3-25.2 25.2-25.2C78.7 42.7 90 53.9 90 67.9S78.8 93.1 64.8 93.1zm0-45.3v18.8c0 .5.6.9 1.1.7l16.7-8.7c.4-.2.5-.7.3-1-3.5-6.1-9.9-10.2-17.3-10.5-.4 0-.8.3-.8.7zM41.4 34l-2.2-2.2c-2.2-2.2-5.6-2.2-7.8 0l-2.6 2.6c-2.2 2.2-2.2 5.6 0 7.8l2.2 2.2c.3.3.8.3 1.2-.1 1.3-1.7 2.7-3.4 4.2-4.9 1.6-1.6 3.2-3 5-4.2.3-.3.4-.9 0-1.2zm35.2-5.7V24c0-3-2.5-5.5-5.5-5.5H58.3c-3 0-5.5 2.5-5.5 5.5v4.5c0 .5.5.8 1 .7 3.6-1 7.3-1.6 11.2-1.6 3.7 0 7.3.5 10.8 1.5.3 0 .8-.3.8-.8z" fill="#FFF"/><path d="M316.9 97c0 10.3-2.6 17.8-7.9 22.5-5.3 4.8-13.3 7.2-24.1 7.2-4 0-12.2-.8-18.8-2.2l2.4-11.9c5.5 1.2 12.8 1.5 16.6 1.5 6 0 10.3-1.2 12.9-3.7 2.6-2.5 3.8-6.1 3.8-11v-2.5c-1.5.7-3.5 1.5-5.9 2.2-2.4.7-5.2 1.1-8.4 1.1-4.2 0-7.9-.7-11.3-2-3.4-1.3-6.4-3.2-8.8-5.8-2.4-2.5-4.3-5.7-5.7-9.5-1.4-3.8-2-10.6-2-15.6 0-4.7.7-10.6 2.2-14.5 1.5-3.9 3.5-7.3 6.3-10.1s6.2-5 10.1-6.5c4-1.6 8.6-2.6 13.6-2.6 4.9 0 9.4.6 13.8 1.3 4.4.7 8.1 1.5 11.2 2.3V97zm-41.8-29.7c0 6.3 1.4 13.3 4.2 16.2 2.8 2.9 6.3 4.4 10.7 4.4 2.4 0 4.7-.3 6.8-1 2.1-.7 3.8-1.4 5.2-2.3V47.2c-1.1-.2-5.6-1.2-9.9-1.3-5.5-.2-9.6 2.1-12.5 5.7-3.1 3.6-4.5 9.8-4.5 15.7zm113.1 0c0 5.1-.7 8.9-2.2 13.1-1.5 4.2-3.6 7.8-6.3 10.7-2.7 2.9-6 5.3-9.8 6.9-3.8 1.6-9.8 2.5-12.7 2.5-3 0-8.8-.9-12.7-2.5-3.8-1.7-7.1-3.9-9.8-6.9-2.7-3-4.8-6.5-6.4-10.7-1.5-4.2-2.3-8-2.3-13.1s.7-10 2.2-14.1c1.5-4.2 3.7-7.7 6.5-10.7 2.8-3 6.1-5.2 9.8-6.8 3.8-1.6 8-2.4 12.5-2.4s8.7.8 12.6 2.4c3.8 1.6 7.2 3.9 9.8 6.8 2.7 3 4.8 6.5 6.4 10.7 1.6 4.1 2.4 9 2.4 14.1zm-15.4 0c0-6.5-1.4-11.9-4.2-15.7-2.8-3.8-6.7-5.7-11.6-5.7-4.9 0-8.8 1.9-11.6 5.7-2.8 3.8-4.1 9.2-4.1 15.7 0 6.6 1.4 11 4.2 14.8 2.8 3.8 6.7 5.7 11.6 5.7 4.9 0 8.8-1.9 11.6-5.7 2.8-3.8 4.1-8.2 4.1-14.8zm48.9 33.2c-24.6.1-24.6-19.9-24.6-23.1V6.3l15-2.4v70.6c0 1.8 0 13.3 9.7 13.3l-.1 12.7zm26.5 0h-15.1V35.6l15.1-2.4v67.3zm-7.6-74.4c5 0 9.2-4.1 9.2-9.1s-4.1-9.1-9.2-9.1-9.2 4.1-9.2 9.1 4.2 9.1 9.2 9.1zm45.2 7.2c5 0 9.2.6 12.5 1.8 3.4 1.2 6.1 3 8.1 5.2s3.4 5.2 4.3 8.3c.9 3.2 1.3 6.6 1.3 10.4v38.7c-2.3.5-5.8 1.1-10.5 1.8s-10 1-15.8 1c-3.9 0-7.5-.4-10.7-1.1-3.2-.7-6-1.9-8.3-3.6-2.3-1.7-4-3.8-5.3-6.4-1.3-2.6-1.9-6.3-1.9-10.2 0-3.7.7-6 2.2-8.6 1.5-2.5 3.4-4.6 5.9-6.2 2.5-1.6 5.3-2.8 8.6-3.5 3.3-.7 6.7-1 10.2-1 1.7 0 3.4.1 5.2.3 1.8.2 3.8.5 5.8 1v-2.5c0-1.7-.2-3.4-.6-4.9-.4-1.6-1.2-2.9-2.2-4.1-1-1.2-2.4-2.1-4.1-2.8-1.7-.7-3.8-1.2-6.4-1.2-3.5 0-6.6.4-9.5.9-2.9.5-5.3 1.1-7.1 1.7L465.7 36c1.9-.7 4.7-1.3 8.3-2 3.7-.4 7.6-.7 11.8-.7zm1.2 54.6c4.6 0 8-.3 10.4-.7V71.8c-.8-.2-2-.5-3.6-.7-1.6-.2-3.3-.4-5.2-.4-1.7 0-3.3.1-5 .4-1.7.2-3.2.7-4.6 1.3-1.3.7-2.5 1.6-3.3 2.8-.8 1.2-1.2 1.9-1.2 3.7 0 3.5 1.2 5.6 3.5 6.9 2.2 1.4 5.2 2.1 9 2.1zM190.1 33.7c5 0 9.2.6 12.5 1.8 3.4 1.2 6.1 3 8.1 5.2s3.4 5.2 4.3 8.3c.9 3.2 1.3 6.6 1.3 10.4v38.7c-2.3.5-5.8 1.1-10.5 1.8s-10 1-15.8 1c-3.9 0-7.5-.4-10.7-1.1-3.2-.7-6-1.9-8.3-3.6-2.3-1.7-4-3.8-5.3-6.4-1.3-2.6-1.9-6.3-1.9-10.2 0-3.7.7-6 2.2-8.6 1.5-2.5 3.4-4.6 5.9-6.2 2.5-1.6 5.3-2.8 8.6-3.5 3.3-.7 6.7-1 10.2-1 1.7 0 3.4.1 5.2.3 1.8.2 3.8.5 5.8 1v-2.5c0-1.7-.2-3.4-.6-4.9-.4-1.6-1.2-2.9-2.2-4.1-1-1.2-2.4-2.1-4.1-2.8-1.7-.7-3.8-1.2-6.4-1.2-3.5 0-6.6.4-9.5.9-2.9.5-5.3 1.1-7.1 1.7L170 36.4c1.9-.7 4.7-1.3 8.3-2 3.8-.4 7.7-.7 11.8-.7zm1.3 54.6c4.6 0 8-.3 10.4-.7V72.2c-.8-.2-2-.5-3.6-.7-1.6-.2-3.3-.4-5.2-.4-1.7 0-3.3.1-5 .4-1.7.2-3.2.7-4.6 1.3-1.4.6-2.5 1.6-3.3 2.8-.8 1.2-1.2 1.9-1.2 3.7 0 3.5 1.2 5.6 3.5 6.9 2.2 1.4 5.2 2.1 9 2.1zm61 12.2c-24.6.1-24.6-19.9-24.6-23.1V6.3l15-2.4v70.6c0 1.8 0 13.3 9.7 13.3v12.7h-.1z" fill="#182359"/></svg>