<svg xmlns="http://www.w3.org/2000/svg" width="306" height="88"><rect width="100%" height="100%" fill="none"/><g class="currentLayer"><title>Layer 1</title><path d="M31.2 86.6V58.2c0-9.2-6-12.4-14.5-12.4-8.3 0-15.2 3.5-15.2 12.6h9.1c0-3.9 2.1-6.1 6.1-6.1 4.6 0 5.6 3.3 5.6 7.3v3.9C13.3 63.8 0 65 0 77c0 6.8 5.4 10.5 11.7 10.5 4.4 0 8.4-1.4 10.4-5.5h.2v4.6h8.9M22.4 69c0 5.1-2.1 12-8.3 12-3.1 0-4.9-1.6-4.9-4.8-.1-6 8.7-7.2 13.2-7.2m36.4-8.6c0-4.1-1.2-8-6-8-5.9 0-7.6 6.1-7.6 10.9 0 10 5.8 17.7 16.4 17.7 2.2 0 4.5-.2 6.7-1v5.7c-3.8 1.2-7.7 1.8-11.6 1.8-14.2 0-21.3-8.7-21.3-22.6 0-11.6 6.3-19.1 18.3-19.1 9.7 0 15.1 4.8 15.1 14.6h-10m35.7 0c0-4.1-1.2-8-6-8-5.9 0-7.6 6.1-7.6 10.9 0 10 5.9 17.7 16.4 17.7 2.3 0 4.5-.2 6.7-1v5.7c-3.8 1.2-7.7 1.8-11.6 1.8-14.2 0-21.3-8.7-21.3-22.6 0-11.6 6.3-19.1 18.2-19.1 9.7 0 15.2 4.8 15.2 14.6h-10m45.2 3.9V62c0-9.7-5-16.1-15.1-16.1-11.9 0-17.1 7.4-17.1 18.7 0 13.1 5.9 22.9 20.1 22.9 3.8 0 7.5-.4 11.1-1.6v-6.4c-2.3.8-5.1 1.5-7.6 1.5-9 0-15-8.3-15-16.7h23.6m-8.8-5.7h-14.6c.4-4 3.5-6.9 7.5-6.9 4.3.1 7.1 2.7 7.1 6.9m36.3 28V63.9c0-1.9.2-7-1.4-8.5-.7-.7-1.8-.8-2.7-.8-6.7 0-9.4 9.5-9.4 14.8v17.2h-9.3V46.8h9.3v7.4h.2c2.1-5.1 6.1-8.4 11.8-8.4 7.6 0 10.8 6.3 10.8 13.1v27.6h-9.3m28.6-33.3V72c0 4.7.5 8.9 6.3 8.9 1.4 0 2.8-.3 4.3-.7v6.5c-2.5.4-5.1.7-7.6.7-8.1 0-12.2-2.7-12.2-11V53h-7.8v-6.4h7.8v-9.4l9.3-3.8v13.2h11.8V53h-11.9m38.7 33.6v-7.4h-.2c-2.1 5-6.2 8.4-11.8 8.4-7.6 0-10.8-6.3-10.8-13.1V46.9h9.3v22.8c0 1.9-.2 7 1.4 8.5.7.7 1.8.7 2.7.7 6.7 0 9.4-9.4 9.4-14.8V46.9h9.3v39.8h-9.3M259 69.1v17.5h-9.3V46.8h9.3v7.4h.2c3.1-5.5 6.2-8.3 12.9-8.3v9.7c-9.6-.1-13.1 4.1-13.1 13.5m47.1-4.8V62c0-9.7-5-16.1-15.1-16.1-11.9 0-17.1 7.4-17.1 18.7 0 13.1 6 22.9 20.1 22.9 3.8 0 7.5-.4 11.1-1.6v-6.4c-2.3.8-5.1 1.5-7.6 1.5-9 0-15-8.3-15-16.7h23.6m-8.8-5.7h-14.6c.4-4 3.5-6.9 7.5-6.9 4.4.1 7.1 2.7 7.1 6.9M178.7 0v6.6s18.6 7.2 21.2 8.2c-2.7 1-21.2 8.2-21.2 8.2v6.5l28.9-11.7v-6L178.7 0" fill="#888"/></g></svg>