<svg xmlns="http://www.w3.org/2000/svg" width="1001.017" height="412.223"><rect width="100%" height="100%" fill="none"/><g class="currentLayer"><title>Layer 1</title><path d="M293.71 410.323H184.084V253.748H112.93v156.575H.38L0 6.753h112.93v150.114h71.154V6.753H293.71v403.57zm502.292 1.9c113.046-.059 205.045-93.957 205.015-207.033C1000.988 89.747 909.048.087 796.002 0c-112.9-.088-170.607 83.023-184.844 116.583.117-50.37-49.522-109.801-107.58-109.889H316.512v403.483l174.408.058c70.336 0 120.355-60.923 120.443-113.163 16.049 32.888 71.739 115.18 184.64 115.151zM476.303 248.047c16.137 0 28.854 15.932 28.854 34.086 0 18.154-12.717 34.116-28.854 34.116h-55.456v-68.202h55.456zm.205-151.489c16.137 0 28.854 15.933 28.854 34.087 0 18.154-12.717 34.086-28.854 34.086h-55.456V96.558h55.456zm73.844 108.72c12.717-1.608 33.882-16.137 41.366-25.433-2.631 11.518-2.836 44.815.233 56.304-8.507-13.126-28.678-29.263-41.6-30.87zm143.01 0c0-56.713 45.985-102.697 102.699-102.697 56.742 0 102.726 45.984 102.726 102.697s-45.984 102.698-102.726 102.698c-56.714 0-102.698-45.985-102.698-102.698zm102.699 80.743c44.61 0 80.743-36.162 80.743-80.743 0-44.581-36.133-80.743-80.743-80.743-44.582 0-80.744 36.162-80.744 80.743 0 44.581 36.162 80.743 80.744 80.743" class="selected" fill="#888"/></g></svg>